# xmcd
#
# Track frame offsets: 
#        150
#        19884
#        44003
#        59020
#        80267
#        102133
#        121215
#        136146
#        162418
#        177176
#        192089
#        212776
#
# Disc length: 3046 seconds
#
# Revision: 0
# Processed by: cddbd v1.5.2PL0 Copyright (c) Steve Scherf et al.
# Submitted via: ExactAudioCopy v1.3
#
DISCID=a40be40c
DTITLE=Good Rocking Sam - Other Side Of Time
DYEAR=2014
DGENRE=Electric Blues, Rockin' Blues
TTITLE0=Other Side Of Time
TTITLE1=Black Coffee
TTITLE2=Grown Man
TTITLE3=Come On Be My Girl
TTITLE4=3 Handed Woman
TTITLE5=The Flow
TTITLE6=Lorraine
TTITLE7=Money And Trouble
TTITLE8=Jack Of Diamonds
TTITLE9=You'd Better Think Twice
TTITLE10=I Was A Fool
TTITLE11=One Of Us
EXTD=
EXTT0=
EXTT1=
EXTT2=
EXTT3=
EXTT4=
EXTT5=
EXTT6=
EXTT7=
EXTT8=
EXTT9=
EXTT10=
EXTT11=
PLAYORDER=
